<?xml version="1.0" encoding="utf-8" standalone="no"?>
<!DOCTYPE svg PUBLIC "-//W3C//DTD SVG 1.1//EN"
  "http://www.w3.org/Graphics/SVG/1.1/DTD/svg11.dtd">
<!-- Created with matplotlib (https://matplotlib.org/) -->
<svg height="262.59pt" version="1.1" viewBox="0 0 386.825 262.59" width="386.825pt" xmlns="http://www.w3.org/2000/svg" xmlns:xlink="http://www.w3.org/1999/xlink">
 <defs>
  <style type="text/css">
*{stroke-linecap:butt;stroke-linejoin:round;}
  </style>
 </defs>
 <g id="figure_1">
  <g id="patch_1">
   <path d="M 0 262.59 
L 386.825 262.59 
L 386.825 0 
L 0 0 
z
" style="fill:#ffffff;"/>
  </g>
  <g id="axes_1">
   <g id="patch_2">
    <path d="M 41.325 228.14 
L 376.125 228.14 
L 376.125 10.7 
L 41.325 10.7 
z
" style="fill:#ffffff;"/>
   </g>
   <g id="matplotlib.axis_1">
    <g id="xtick_1">
     <g id="line2d_1">
      <path clip-path="url(#pb2be8e27aa)" d="M 42.002559 228.14 
L 42.002559 10.7 
" style="fill:none;stroke:#b0b0b0;stroke-linecap:square;stroke-width:0.8;"/>
     </g>
     <g id="line2d_2">
      <defs>
       <path d="M 0 0 
L 0 3.5 
" id="m6b6db940ce" style="stroke:#000000;stroke-width:0.8;"/>
      </defs>
      <g>
       <use style="stroke:#000000;stroke-width:0.8;" x="42.002559" xlink:href="#m6b6db940ce" y="228.14"/>
      </g>
     </g>
     <g id="text_1">
      <!-- 0.62 -->
      <defs>
       <path d="M 3.125 29.296875 
Q 3.90625 50 6.4375 56.046875 
Q 8.984375 62.109375 13.671875 66.015625 
Q 18.359375 69.921875 25.1875 69.921875 
Q 32.03125 69.921875 37.109375 64.25 
Q 42.1875 58.59375 43.75 50 
Q 45.3125 41.40625 44.71875 30.265625 
Q 44.140625 19.140625 40.8125 12.109375 
Q 37.5 5.078125 30.859375 2.34375 
Q 24.21875 -0.390625 17.578125 2.921875 
Q 10.9375 6.25 8.203125 11.71875 
Q 5.46875 17.1875 4.296875 23.234375 
Q 3.125 29.296875 3.90625 50 
z
M 12.890625 52.734375 
Q 10.546875 31.25 12.5 22.84375 
Q 14.453125 14.453125 18.9375 10.9375 
Q 23.4375 7.421875 28.125 9.5625 
Q 32.8125 11.71875 34.953125 18.15625 
Q 37.109375 24.609375 37.109375 32.21875 
Q 37.109375 39.84375 36.515625 46.09375 
Q 35.9375 52.34375 33 57.421875 
Q 30.078125 62.5 25.1875 62.6875 
Q 20.3125 62.890625 16.59375 57.8125 
Q 12.890625 52.734375 10.546875 31.25 
z
" id="SimHei-48"/>
       <path d="M 16.796875 1.953125 
L 7.8125 1.953125 
L 7.8125 10.546875 
L 16.796875 10.546875 
z
" id="SimHei-46"/>
       <path d="M 3.515625 19.53125 
Q 4.296875 30.859375 6.046875 34.765625 
Q 7.8125 38.671875 11.328125 44.53125 
L 27.34375 69.53125 
L 36.328125 69.53125 
L 19.921875 43.75 
Q 30.46875 46.484375 36.71875 42.96875 
Q 42.96875 39.453125 45.109375 34.953125 
Q 47.265625 30.46875 47.453125 25.1875 
Q 47.65625 19.921875 45.890625 14.84375 
Q 44.140625 9.765625 39.640625 5.65625 
Q 35.15625 1.5625 27.140625 1.171875 
Q 19.140625 0.78125 13.46875 4.09375 
Q 7.8125 7.421875 5.65625 13.46875 
Q 3.515625 19.53125 4.296875 30.859375 
z
M 12.5 16.015625 
Q 19.53125 8.59375 25.390625 8.203125 
Q 31.25 7.8125 35.15625 12.109375 
Q 39.0625 16.40625 39.0625 24.609375 
Q 39.0625 32.8125 34.171875 35.9375 
Q 29.296875 39.0625 23.234375 38.28125 
Q 17.1875 37.5 14.453125 32.421875 
Q 11.71875 27.34375 12.109375 21.671875 
Q 12.5 16.015625 19.53125 8.59375 
z
" id="SimHei-54"/>
       <path d="M 4.6875 3.90625 
Q 5.078125 9.765625 10.15625 14.453125 
Q 15.234375 19.140625 23.046875 29.09375 
Q 30.859375 39.0625 33.203125 44.53125 
Q 35.546875 50 34.953125 53.90625 
Q 34.375 57.8125 31.25 60.34375 
Q 28.125 62.890625 24.015625 62.5 
Q 19.921875 62.109375 16.203125 59.375 
Q 12.5 56.640625 10.546875 51.171875 
L 3.125 52.34375 
Q 6.25 61.328125 11.125 65.421875 
Q 16.015625 69.53125 22.65625 69.921875 
Q 26.5625 70.3125 29.6875 69.71875 
Q 32.8125 69.140625 36.125 66.984375 
Q 39.453125 64.84375 41.59375 60.546875 
Q 43.75 56.25 43.15625 50.1875 
Q 42.578125 44.140625 37.109375 35.734375 
Q 31.640625 27.34375 16.015625 9.375 
L 44.140625 9.375 
L 44.140625 2.34375 
L 4.6875 2.34375 
z
" id="SimHei-50"/>
      </defs>
      <g transform="translate(32.002559 242.015)scale(0.1 -0.1)">
       <use xlink:href="#SimHei-48"/>
       <use x="50" xlink:href="#SimHei-46"/>
       <use x="100" xlink:href="#SimHei-54"/>
       <use x="150" xlink:href="#SimHei-50"/>
      </g>
     </g>
    </g>
    <g id="xtick_2">
     <g id="line2d_3">
      <path clip-path="url(#pb2be8e27aa)" d="M 86.9903 228.14 
L 86.9903 10.7 
" style="fill:none;stroke:#b0b0b0;stroke-linecap:square;stroke-width:0.8;"/>
     </g>
     <g id="line2d_4">
      <g>
       <use style="stroke:#000000;stroke-width:0.8;" x="86.9903" xlink:href="#m6b6db940ce" y="228.14"/>
      </g>
     </g>
     <g id="text_2">
      <!-- 0.64 -->
      <defs>
       <path d="M 31.25 17.1875 
L 1.171875 17.1875 
L 1.171875 23.828125 
L 32.8125 69.53125 
L 38.671875 69.53125 
L 38.671875 23.828125 
L 48.046875 23.828125 
L 48.046875 17.1875 
L 38.671875 17.1875 
L 38.671875 2.34375 
L 31.25 2.34375 
z
M 31.25 23.828125 
L 31.25 54.6875 
L 9.375 23.828125 
z
" id="SimHei-52"/>
      </defs>
      <g transform="translate(76.9903 242.015)scale(0.1 -0.1)">
       <use xlink:href="#SimHei-48"/>
       <use x="50" xlink:href="#SimHei-46"/>
       <use x="100" xlink:href="#SimHei-54"/>
       <use x="150" xlink:href="#SimHei-52"/>
      </g>
     </g>
    </g>
    <g id="xtick_3">
     <g id="line2d_5">
      <path clip-path="url(#pb2be8e27aa)" d="M 131.978042 228.14 
L 131.978042 10.7 
" style="fill:none;stroke:#b0b0b0;stroke-linecap:square;stroke-width:0.8;"/>
     </g>
     <g id="line2d_6">
      <g>
       <use style="stroke:#000000;stroke-width:0.8;" x="131.978042" xlink:href="#m6b6db940ce" y="228.14"/>
      </g>
     </g>
     <g id="text_3">
      <!-- 0.66 -->
      <g transform="translate(121.978042 242.015)scale(0.1 -0.1)">
       <use xlink:href="#SimHei-48"/>
       <use x="50" xlink:href="#SimHei-46"/>
       <use x="100" xlink:href="#SimHei-54"/>
       <use x="150" xlink:href="#SimHei-54"/>
      </g>
     </g>
    </g>
    <g id="xtick_4">
     <g id="line2d_7">
      <path clip-path="url(#pb2be8e27aa)" d="M 176.965784 228.14 
L 176.965784 10.7 
" style="fill:none;stroke:#b0b0b0;stroke-linecap:square;stroke-width:0.8;"/>
     </g>
     <g id="line2d_8">
      <g>
       <use style="stroke:#000000;stroke-width:0.8;" x="176.965784" xlink:href="#m6b6db940ce" y="228.14"/>
      </g>
     </g>
     <g id="text_4">
      <!-- 0.68 -->
      <defs>
       <path d="M 2.734375 16.796875 
Q 2.734375 26.171875 5.078125 30.65625 
Q 7.421875 35.15625 12.890625 37.890625 
Q 8.203125 40.625 6.640625 43.9375 
Q 5.078125 47.265625 4.875 51.5625 
Q 4.6875 55.859375 6.046875 58.984375 
Q 7.421875 62.109375 10.15625 64.84375 
Q 12.890625 67.578125 16.203125 68.546875 
Q 19.53125 69.53125 23.4375 69.53125 
Q 27.34375 69.53125 30.46875 68.75 
Q 33.59375 67.96875 37.109375 65.421875 
Q 40.625 62.890625 42.1875 58.203125 
Q 43.75 53.515625 41.984375 47.265625 
Q 40.234375 41.015625 32.8125 37.5 
Q 39.453125 35.546875 42.1875 31.4375 
Q 44.921875 27.34375 44.921875 21.484375 
Q 44.921875 15.625 43.15625 12.109375 
Q 41.40625 8.59375 39.25 6.25 
Q 37.109375 3.90625 33.390625 2.53125 
Q 29.6875 1.171875 24.015625 1.171875 
Q 18.359375 1.171875 14.25 2.53125 
Q 10.15625 3.90625 7.421875 6.640625 
Q 4.6875 9.375 3.703125 13.078125 
Q 2.734375 16.796875 2.734375 26.171875 
z
M 10.9375 26.5625 
Q 10.546875 17.1875 12.296875 13.671875 
Q 14.0625 10.15625 18.75 9.171875 
Q 23.4375 8.203125 28.515625 9.375 
Q 33.59375 10.546875 35.546875 14.84375 
Q 37.5 19.140625 36.90625 23.4375 
Q 36.328125 27.734375 32.03125 30.65625 
Q 27.734375 33.59375 22.65625 33.203125 
Q 17.578125 32.8125 14.25 29.6875 
Q 10.9375 26.5625 10.546875 17.1875 
z
M 12.109375 56.25 
Q 12.109375 48.4375 14.84375 44.921875 
Q 17.578125 41.40625 23.4375 41.40625 
Q 29.296875 41.40625 32.21875 44.921875 
Q 35.15625 48.4375 34.953125 53.3125 
Q 34.765625 58.203125 31.4375 60.546875 
Q 28.125 62.890625 22.453125 62.5 
Q 16.796875 62.109375 14.453125 59.171875 
Q 12.109375 56.25 12.109375 48.4375 
z
" id="SimHei-56"/>
      </defs>
      <g transform="translate(166.965784 242.015)scale(0.1 -0.1)">
       <use xlink:href="#SimHei-48"/>
       <use x="50" xlink:href="#SimHei-46"/>
       <use x="100" xlink:href="#SimHei-54"/>
       <use x="150" xlink:href="#SimHei-56"/>
      </g>
     </g>
    </g>
    <g id="xtick_5">
     <g id="line2d_9">
      <path clip-path="url(#pb2be8e27aa)" d="M 221.953526 228.14 
L 221.953526 10.7 
" style="fill:none;stroke:#b0b0b0;stroke-linecap:square;stroke-width:0.8;"/>
     </g>
     <g id="line2d_10">
      <g>
       <use style="stroke:#000000;stroke-width:0.8;" x="221.953526" xlink:href="#m6b6db940ce" y="228.14"/>
      </g>
     </g>
     <g id="text_5">
      <!-- 0.70 -->
      <defs>
       <path d="M 13.28125 2.34375 
Q 20.3125 32.03125 37.890625 61.328125 
L 4.296875 61.328125 
L 4.296875 68.359375 
L 46.09375 68.359375 
L 46.09375 61.71875 
Q 27.734375 32.03125 21.875 2.34375 
L 13.28125 2.34375 
z
" id="SimHei-55"/>
      </defs>
      <g transform="translate(211.953526 242.015)scale(0.1 -0.1)">
       <use xlink:href="#SimHei-48"/>
       <use x="50" xlink:href="#SimHei-46"/>
       <use x="100" xlink:href="#SimHei-55"/>
       <use x="150" xlink:href="#SimHei-48"/>
      </g>
     </g>
    </g>
    <g id="xtick_6">
     <g id="line2d_11">
      <path clip-path="url(#pb2be8e27aa)" d="M 266.941267 228.14 
L 266.941267 10.7 
" style="fill:none;stroke:#b0b0b0;stroke-linecap:square;stroke-width:0.8;"/>
     </g>
     <g id="line2d_12">
      <g>
       <use style="stroke:#000000;stroke-width:0.8;" x="266.941267" xlink:href="#m6b6db940ce" y="228.14"/>
      </g>
     </g>
     <g id="text_6">
      <!-- 0.72 -->
      <g transform="translate(256.941267 242.015)scale(0.1 -0.1)">
       <use xlink:href="#SimHei-48"/>
       <use x="50" xlink:href="#SimHei-46"/>
       <use x="100" xlink:href="#SimHei-55"/>
       <use x="150" xlink:href="#SimHei-50"/>
      </g>
     </g>
    </g>
    <g id="xtick_7">
     <g id="line2d_13">
      <path clip-path="url(#pb2be8e27aa)" d="M 311.929009 228.14 
L 311.929009 10.7 
" style="fill:none;stroke:#b0b0b0;stroke-linecap:square;stroke-width:0.8;"/>
     </g>
     <g id="line2d_14">
      <g>
       <use style="stroke:#000000;stroke-width:0.8;" x="311.929009" xlink:href="#m6b6db940ce" y="228.14"/>
      </g>
     </g>
     <g id="text_7">
      <!-- 0.74 -->
      <g transform="translate(301.929009 242.015)scale(0.1 -0.1)">
       <use xlink:href="#SimHei-48"/>
       <use x="50" xlink:href="#SimHei-46"/>
       <use x="100" xlink:href="#SimHei-55"/>
       <use x="150" xlink:href="#SimHei-52"/>
      </g>
     </g>
    </g>
    <g id="xtick_8">
     <g id="line2d_15">
      <path clip-path="url(#pb2be8e27aa)" d="M 356.916751 228.14 
L 356.916751 10.7 
" style="fill:none;stroke:#b0b0b0;stroke-linecap:square;stroke-width:0.8;"/>
     </g>
     <g id="line2d_16">
      <g>
       <use style="stroke:#000000;stroke-width:0.8;" x="356.916751" xlink:href="#m6b6db940ce" y="228.14"/>
      </g>
     </g>
     <g id="text_8">
      <!-- 0.76 -->
      <g transform="translate(346.916751 242.015)scale(0.1 -0.1)">
       <use xlink:href="#SimHei-48"/>
       <use x="50" xlink:href="#SimHei-46"/>
       <use x="100" xlink:href="#SimHei-55"/>
       <use x="150" xlink:href="#SimHei-54"/>
      </g>
     </g>
    </g>
    <g id="text_9">
     <!-- F1 -->
     <defs>
      <path d="M 45.703125 61.328125 
L 13.671875 61.328125 
L 13.671875 39.453125 
L 37.890625 39.453125 
L 37.890625 32.03125 
L 13.671875 32.03125 
L 13.671875 1.953125 
L 4.6875 1.953125 
L 4.6875 68.75 
L 45.703125 68.75 
z
" id="SimHei-70"/>
      <path d="M 21.875 56.25 
Q 16.796875 51.171875 8.984375 46.484375 
L 8.984375 53.90625 
Q 18.75 60.546875 25 69.53125 
L 29.6875 69.53125 
L 29.6875 2.34375 
L 21.875 2.34375 
z
" id="SimHei-49"/>
     </defs>
     <g transform="translate(203.725 254.14)scale(0.1 -0.1)">
      <use xlink:href="#SimHei-70"/>
      <use x="50" xlink:href="#SimHei-49"/>
     </g>
    </g>
   </g>
   <g id="matplotlib.axis_2">
    <g id="ytick_1">
     <g id="line2d_17">
      <path clip-path="url(#pb2be8e27aa)" d="M 41.325 192.654144 
L 376.125 192.654144 
" style="fill:none;stroke:#b0b0b0;stroke-linecap:square;stroke-width:0.8;"/>
     </g>
     <g id="line2d_18">
      <defs>
       <path d="M 0 0 
L -3.5 0 
" id="mc8919976f8" style="stroke:#000000;stroke-width:0.8;"/>
      </defs>
      <g>
       <use style="stroke:#000000;stroke-width:0.8;" x="41.325" xlink:href="#mc8919976f8" y="192.654144"/>
      </g>
     </g>
     <g id="text_10">
      <!-- 40 -->
      <g transform="translate(24.325 196.091644)scale(0.1 -0.1)">
       <use xlink:href="#SimHei-52"/>
       <use x="50" xlink:href="#SimHei-48"/>
      </g>
     </g>
    </g>
    <g id="ytick_2">
     <g id="line2d_19">
      <path clip-path="url(#pb2be8e27aa)" d="M 41.325 152.792711 
L 376.125 152.792711 
" style="fill:none;stroke:#b0b0b0;stroke-linecap:square;stroke-width:0.8;"/>
     </g>
     <g id="line2d_20">
      <g>
       <use style="stroke:#000000;stroke-width:0.8;" x="41.325" xlink:href="#mc8919976f8" y="152.792711"/>
      </g>
     </g>
     <g id="text_11">
      <!-- 60 -->
      <g transform="translate(24.325 156.230211)scale(0.1 -0.1)">
       <use xlink:href="#SimHei-54"/>
       <use x="50" xlink:href="#SimHei-48"/>
      </g>
     </g>
    </g>
    <g id="ytick_3">
     <g id="line2d_21">
      <path clip-path="url(#pb2be8e27aa)" d="M 41.325 112.931278 
L 376.125 112.931278 
" style="fill:none;stroke:#b0b0b0;stroke-linecap:square;stroke-width:0.8;"/>
     </g>
     <g id="line2d_22">
      <g>
       <use style="stroke:#000000;stroke-width:0.8;" x="41.325" xlink:href="#mc8919976f8" y="112.931278"/>
      </g>
     </g>
     <g id="text_12">
      <!-- 80 -->
      <g transform="translate(24.325 116.368778)scale(0.1 -0.1)">
       <use xlink:href="#SimHei-56"/>
       <use x="50" xlink:href="#SimHei-48"/>
      </g>
     </g>
    </g>
    <g id="ytick_4">
     <g id="line2d_23">
      <path clip-path="url(#pb2be8e27aa)" d="M 41.325 73.069845 
L 376.125 73.069845 
" style="fill:none;stroke:#b0b0b0;stroke-linecap:square;stroke-width:0.8;"/>
     </g>
     <g id="line2d_24">
      <g>
       <use style="stroke:#000000;stroke-width:0.8;" x="41.325" xlink:href="#mc8919976f8" y="73.069845"/>
      </g>
     </g>
     <g id="text_13">
      <!-- 100 -->
      <g transform="translate(19.325 76.507345)scale(0.1 -0.1)">
       <use xlink:href="#SimHei-49"/>
       <use x="50" xlink:href="#SimHei-48"/>
       <use x="100" xlink:href="#SimHei-48"/>
      </g>
     </g>
    </g>
    <g id="ytick_5">
     <g id="line2d_25">
      <path clip-path="url(#pb2be8e27aa)" d="M 41.325 33.208412 
L 376.125 33.208412 
" style="fill:none;stroke:#b0b0b0;stroke-linecap:square;stroke-width:0.8;"/>
     </g>
     <g id="line2d_26">
      <g>
       <use style="stroke:#000000;stroke-width:0.8;" x="41.325" xlink:href="#mc8919976f8" y="33.208412"/>
      </g>
     </g>
     <g id="text_14">
      <!-- 120 -->
      <g transform="translate(19.325 36.645912)scale(0.1 -0.1)">
       <use xlink:href="#SimHei-49"/>
       <use x="50" xlink:href="#SimHei-50"/>
       <use x="100" xlink:href="#SimHei-48"/>
      </g>
     </g>
    </g>
    <g id="text_15">
     <!-- F2 -->
     <g transform="translate(14.075 124.42)rotate(-90)scale(0.1 -0.1)">
      <use xlink:href="#SimHei-70"/>
      <use x="50" xlink:href="#SimHei-50"/>
     </g>
    </g>
   </g>
   <g id="line2d_27">
    <defs>
     <path d="M 0 1.5 
C 0.397805 1.5 0.77937 1.341951 1.06066 1.06066 
C 1.341951 0.77937 1.5 0.397805 1.5 0 
C 1.5 -0.397805 1.341951 -0.77937 1.06066 -1.06066 
C 0.77937 -1.341951 0.397805 -1.5 0 -1.5 
C -0.397805 -1.5 -0.77937 -1.341951 -1.06066 -1.06066 
C -1.341951 -0.77937 -1.5 -0.397805 -1.5 0 
C -1.5 0.397805 -1.341951 0.77937 -1.06066 1.06066 
C -0.77937 1.341951 -0.397805 1.5 0 1.5 
z
" id="me62b24de46" style="stroke:#4682b4;"/>
    </defs>
    <g clip-path="url(#pb2be8e27aa)">
     <use style="fill:#4682b4;stroke:#4682b4;" x="274.06101" xlink:href="#me62b24de46" y="186.082212"/>
     <use style="fill:#4682b4;stroke:#4682b4;" x="350.689664" xlink:href="#me62b24de46" y="121.538882"/>
     <use style="fill:#4682b4;stroke:#4682b4;" x="287.773506" xlink:href="#me62b24de46" y="181.612339"/>
     <use style="fill:#4682b4;stroke:#4682b4;" x="360.906818" xlink:href="#me62b24de46" y="20.583636"/>
     <use style="fill:#4682b4;stroke:#4682b4;" x="274.598755" xlink:href="#me62b24de46" y="184.40576"/>
     <use style="fill:#4682b4;stroke:#4682b4;" x="353.916134" xlink:href="#me62b24de46" y="95.033092"/>
     <use style="fill:#4682b4;stroke:#4682b4;" x="183.450988" xlink:href="#me62b24de46" y="205.675627"/>
     <use style="fill:#4682b4;stroke:#4682b4;" x="270.834541" xlink:href="#me62b24de46" y="187.336142"/>
     <use style="fill:#4682b4;stroke:#4682b4;" x="225.663966" xlink:href="#me62b24de46" y="199.860521"/>
     <use style="fill:#4682b4;stroke:#4682b4;" x="280.782822" xlink:href="#me62b24de46" y="184.116137"/>
     <use style="fill:#4682b4;stroke:#4682b4;" x="272.98552" xlink:href="#me62b24de46" y="187.126836"/>
     <use style="fill:#4682b4;stroke:#4682b4;" x="85.850281" xlink:href="#me62b24de46" y="208.873661"/>
     <use style="fill:#4682b4;stroke:#4682b4;" x="270.296796" xlink:href="#me62b24de46" y="187.441457"/>
     <use style="fill:#4682b4;stroke:#4682b4;" x="359.831328" xlink:href="#me62b24de46" y="20.740231"/>
     <use style="fill:#4682b4;stroke:#4682b4;" x="222.975241" xlink:href="#me62b24de46" y="202.238009"/>
     <use style="fill:#4682b4;stroke:#4682b4;" x="294.495318" xlink:href="#me62b24de46" y="180.100337"/>
     <use style="fill:#4682b4;stroke:#4682b4;" x="164.361042" xlink:href="#me62b24de46" y="208.081015"/>
     <use style="fill:#4682b4;stroke:#4682b4;" x="256.853172" xlink:href="#me62b24de46" y="194.653577"/>
     <use style="fill:#4682b4;stroke:#4682b4;" x="269.221306" xlink:href="#me62b24de46" y="187.591492"/>
     <use style="fill:#4682b4;stroke:#4682b4;" x="176.460304" xlink:href="#me62b24de46" y="205.921078"/>
     <use style="fill:#4682b4;stroke:#4682b4;" x="273.792138" xlink:href="#me62b24de46" y="186.110209"/>
     <use style="fill:#4682b4;stroke:#4682b4;" x="223.781858" xlink:href="#me62b24de46" y="202.19323"/>
     <use style="fill:#4682b4;stroke:#4682b4;" x="320.038203" xlink:href="#me62b24de46" y="161.83056"/>
     <use style="fill:#4682b4;stroke:#4682b4;" x="275.1365" xlink:href="#me62b24de46" y="184.118437"/>
     <use style="fill:#4682b4;stroke:#4682b4;" x="237.494354" xlink:href="#me62b24de46" y="197.964326"/>
     <use style="fill:#4682b4;stroke:#4682b4;" x="292.613211" xlink:href="#me62b24de46" y="181.176278"/>
     <use style="fill:#4682b4;stroke:#4682b4;" x="83.968174" xlink:href="#me62b24de46" y="216.377419"/>
     <use style="fill:#4682b4;stroke:#4682b4;" x="257.390917" xlink:href="#me62b24de46" y="192.741237"/>
     <use style="fill:#4682b4;stroke:#4682b4;" x="264.381601" xlink:href="#me62b24de46" y="190.33408"/>
     <use style="fill:#4682b4;stroke:#4682b4;" x="263.843856" xlink:href="#me62b24de46" y="191.531781"/>
     <use style="fill:#4682b4;stroke:#4682b4;" x="283.471547" xlink:href="#me62b24de46" y="182.7674"/>
     <use style="fill:#4682b4;stroke:#4682b4;" x="296.646298" xlink:href="#me62b24de46" y="175.70457"/>
     <use style="fill:#4682b4;stroke:#4682b4;" x="222.706368" xlink:href="#me62b24de46" y="202.420898"/>
     <use style="fill:#4682b4;stroke:#4682b4;" x="250.669105" xlink:href="#me62b24de46" y="196.470598"/>
     <use style="fill:#4682b4;stroke:#4682b4;" x="222.437496" xlink:href="#me62b24de46" y="202.557609"/>
     <use style="fill:#4682b4;stroke:#4682b4;" x="286.698016" xlink:href="#me62b24de46" y="182.324741"/>
     <use style="fill:#4682b4;stroke:#4682b4;" x="353.109517" xlink:href="#me62b24de46" y="112.100363"/>
     <use style="fill:#4682b4;stroke:#4682b4;" x="341.816873" xlink:href="#me62b24de46" y="127.038891"/>
     <use style="fill:#4682b4;stroke:#4682b4;" x="295.033063" xlink:href="#me62b24de46" y="175.953549"/>
     <use style="fill:#4682b4;stroke:#4682b4;" x="358.218093" xlink:href="#me62b24de46" y="67.398357"/>
     <use style="fill:#4682b4;stroke:#4682b4;" x="350.958537" xlink:href="#me62b24de46" y="114.762431"/>
     <use style="fill:#4682b4;stroke:#4682b4;" x="238.032099" xlink:href="#me62b24de46" y="197.839344"/>
     <use style="fill:#4682b4;stroke:#4682b4;" x="72.137785" xlink:href="#me62b24de46" y="218.181788"/>
     <use style="fill:#4682b4;stroke:#4682b4;" x="267.608071" xlink:href="#me62b24de46" y="187.9298"/>
     <use style="fill:#4682b4;stroke:#4682b4;" x="333.481826" xlink:href="#me62b24de46" y="145.312707"/>
     <use style="fill:#4682b4;stroke:#4682b4;" x="346.387705" xlink:href="#me62b24de46" y="126.900626"/>
     <use style="fill:#4682b4;stroke:#4682b4;" x="359.293583" xlink:href="#me62b24de46" y="24.78558"/>
     <use style="fill:#4682b4;stroke:#4682b4;" x="332.944081" xlink:href="#me62b24de46" y="145.608868"/>
     <use style="fill:#4682b4;stroke:#4682b4;" x="266.532581" xlink:href="#me62b24de46" y="188.186534"/>
     <use style="fill:#4682b4;stroke:#4682b4;" x="330.255357" xlink:href="#me62b24de46" y="159.719623"/>
     <use style="fill:#4682b4;stroke:#4682b4;" x="325.953397" xlink:href="#me62b24de46" y="160.973613"/>
     <use style="fill:#4682b4;stroke:#4682b4;" x="56.543182" xlink:href="#me62b24de46" y="218.256364"/>
     <use style="fill:#4682b4;stroke:#4682b4;" x="292.882083" xlink:href="#me62b24de46" y="180.841541"/>
     <use style="fill:#4682b4;stroke:#4682b4;" x="226.201711" xlink:href="#me62b24de46" y="199.540944"/>
     <use style="fill:#4682b4;stroke:#4682b4;" x="353.378389" xlink:href="#me62b24de46" y="95.141646"/>
     <use style="fill:#4682b4;stroke:#4682b4;" x="309.552176" xlink:href="#me62b24de46" y="172.274946"/>
     <use style="fill:#4682b4;stroke:#4682b4;" x="263.843856" xlink:href="#me62b24de46" y="191.531781"/>
     <use style="fill:#4682b4;stroke:#4682b4;" x="84.237046" xlink:href="#me62b24de46" y="209.775064"/>
     <use style="fill:#4682b4;stroke:#4682b4;" x="331.868591" xlink:href="#me62b24de46" y="147.667442"/>
     <use style="fill:#4682b4;stroke:#4682b4;" x="235.881119" xlink:href="#me62b24de46" y="199.21519"/>
     <use style="fill:#4682b4;stroke:#4682b4;" x="313.585263" xlink:href="#me62b24de46" y="164.011521"/>
     <use style="fill:#4682b4;stroke:#4682b4;" x="346.656577" xlink:href="#me62b24de46" y="123.844527"/>
     <use style="fill:#4682b4;stroke:#4682b4;" x="338.321531" xlink:href="#me62b24de46" y="141.469839"/>
     <use style="fill:#4682b4;stroke:#4682b4;" x="260.079642" xlink:href="#me62b24de46" y="191.570253"/>
     <use style="fill:#4682b4;stroke:#4682b4;" x="82.086066" xlink:href="#me62b24de46" y="217.312791"/>
     <use style="fill:#4682b4;stroke:#4682b4;" x="266.263709" xlink:href="#me62b24de46" y="189.847616"/>
     <use style="fill:#4682b4;stroke:#4682b4;" x="264.381601" xlink:href="#me62b24de46" y="190.33408"/>
     <use style="fill:#4682b4;stroke:#4682b4;" x="287.773506" xlink:href="#me62b24de46" y="181.612339"/>
     <use style="fill:#4682b4;stroke:#4682b4;" x="287.773506" xlink:href="#me62b24de46" y="181.612339"/>
     <use style="fill:#4682b4;stroke:#4682b4;" x="359.562456" xlink:href="#me62b24de46" y="21.058878"/>
     <use style="fill:#4682b4;stroke:#4682b4;" x="239.376462" xlink:href="#me62b24de46" y="197.526193"/>
     <use style="fill:#4682b4;stroke:#4682b4;" x="318.156095" xlink:href="#me62b24de46" y="163.864011"/>
     <use style="fill:#4682b4;stroke:#4682b4;" x="83.968174" xlink:href="#me62b24de46" y="216.377419"/>
     <use style="fill:#4682b4;stroke:#4682b4;" x="311.165411" xlink:href="#me62b24de46" y="165.259151"/>
     <use style="fill:#4682b4;stroke:#4682b4;" x="290.999976" xlink:href="#me62b24de46" y="181.560247"/>
     <use style="fill:#4682b4;stroke:#4682b4;" x="358.755838" xlink:href="#me62b24de46" y="55.210807"/>
     <use style="fill:#4682b4;stroke:#4682b4;" x="299.872767" xlink:href="#me62b24de46" y="175.441908"/>
     <use style="fill:#4682b4;stroke:#4682b4;" x="157.101486" xlink:href="#me62b24de46" y="208.274145"/>
     <use style="fill:#4682b4;stroke:#4682b4;" x="241.258569" xlink:href="#me62b24de46" y="197.050785"/>
     <use style="fill:#4682b4;stroke:#4682b4;" x="165.16766" xlink:href="#me62b24de46" y="206.076515"/>
    </g>
   </g>
   <g id="patch_3">
    <path d="M 41.325 228.14 
L 41.325 10.7 
" style="fill:none;stroke:#000000;stroke-linecap:square;stroke-linejoin:miter;stroke-width:0.8;"/>
   </g>
   <g id="patch_4">
    <path d="M 376.125 228.14 
L 376.125 10.7 
" style="fill:none;stroke:#000000;stroke-linecap:square;stroke-linejoin:miter;stroke-width:0.8;"/>
   </g>
   <g id="patch_5">
    <path d="M 41.325 228.14 
L 376.125 228.14 
" style="fill:none;stroke:#000000;stroke-linecap:square;stroke-linejoin:miter;stroke-width:0.8;"/>
   </g>
   <g id="patch_6">
    <path d="M 41.325 10.7 
L 376.125 10.7 
" style="fill:none;stroke:#000000;stroke-linecap:square;stroke-linejoin:miter;stroke-width:0.8;"/>
   </g>
  </g>
 </g>
 <defs>
  <clipPath id="pb2be8e27aa">
   <rect height="217.44" width="334.8" x="41.325" y="10.7"/>
  </clipPath>
 </defs>
</svg>
